<?xml version="1.0" standalone="no"?>
<!DOCTYPE svg PUBLIC "-//W3C//DTD SVG 20010904//EN"
 "http://www.w3.org/TR/2001/REC-SVG-20010904/DTD/svg10.dtd">
<svg version="1.0" xmlns="http://www.w3.org/2000/svg"
 width="177.000000pt" height="145.000000pt" viewBox="0 0 177.000000 145.000000"
 preserveAspectRatio="xMidYMid meet">

<g transform="translate(0.000000,145.000000) scale(0.100000,-0.100000)"
fill="#000000" stroke="none">
<path d="M1 1183 c0 -148 3 -260 7 -251 4 9 25 29 46 43 l40 27 40 -21 c23
-12 66 -35 96 -51 36 -20 70 -30 98 -30 l43 0 -6 33 c-3 17 -2 80 3 139 9 113
24 148 63 148 10 0 23 8 28 18 9 15 11 14 12 -8 1 -18 4 -13 14 20 l13 45 1
-47 c1 -26 5 -49 10 -52 15 -10 22 -73 12 -118 -5 -23 -13 -80 -16 -124 l-7
-81 48 -17 c26 -9 62 -16 80 -16 18 0 35 -6 37 -12 3 -7 7 21 8 62 3 84 3 87
-11 185 -29 202 -25 224 41 244 30 9 40 18 45 39 3 15 9 36 14 47 7 17 9 15 9
-12 1 -17 4 -39 8 -49 6 -16 7 -16 14 2 6 15 8 12 8 -13 1 -17 6 -35 12 -39
14 -8 3 -242 -12 -260 -5 -7 -7 -59 -3 -128 7 -109 8 -116 28 -116 12 0 46
-16 76 -35 30 -18 56 -32 58 -30 2 2 -1 116 -7 254 -11 241 -10 252 9 301 11
28 21 63 21 78 l1 27 8 -30 c4 -16 8 -23 9 -15 2 10 6 7 11 -7 5 -13 18 -23
28 -23 10 0 26 -14 35 -30 17 -27 17 -37 6 -105 -9 -49 -10 -85 -3 -107 5 -18
7 -89 4 -158 -5 -119 -6 -121 -11 -50 -4 64 -5 56 -7 -52 l-2 -127 38 -7 c20
-4 42 -10 47 -14 6 -4 25 -11 43 -15 l32 -7 0 65 c0 36 3 73 7 83 4 11 3 15
-4 11 -18 -11 -23 38 -19 168 3 95 8 129 25 165 12 26 21 37 21 26 0 -29 12
-11 20 31 l8 38 1 -38 c1 -24 8 -43 22 -55 41 -34 49 -65 45 -169 -9 -225 -8
-212 -16 -173 -6 28 -8 20 -9 -40 -1 -41 -4 -91 -7 -111 -7 -39 -10 -37 99
-53 10 -1 22 -7 25 -13 4 -5 25 -12 47 -15 23 -3 61 -15 85 -27 24 -11 54 -21
65 -21 12 0 39 -11 59 -25 20 -14 41 -25 46 -25 6 0 10 -5 10 -11 0 -12 -133
-3 -160 12 -18 10 -123 39 -140 39 -10 0 -10 -4 0 -15 15 -19 6 -32 -12 -17
-10 8 -111 42 -125 42 -2 0 -4 -55 -4 -122 -1 -74 -4 -109 -8 -88 -6 29 -8 21
-15 -48 -5 -46 -12 -80 -16 -75 -5 4 -12 83 -16 176 -4 92 -10 167 -13 167 -3
-1 -17 -7 -31 -14 -14 -8 -31 -11 -40 -6 -8 4 -41 10 -72 12 -67 5 -67 5 -69
-117 -1 -44 -5 -109 -9 -145 l-7 -65 -2 60 c-1 33 -6 78 -10 100 l-9 40 -2
-55 -3 -55 -8 50 c-4 28 -5 89 -2 137 l6 88 -41 0 c-23 0 -44 -5 -47 -10 -4
-6 -11 -8 -16 -4 -5 3 -7 10 -3 15 3 6 -3 13 -15 16 -11 3 -23 14 -27 25 -4
13 -13 18 -27 16 -19 -3 -23 -11 -28 -63 l-6 -60 -1 54 c-4 111 -15 35 -28
-191 -7 -128 -14 -249 -15 -268 l-1 -35 -8 35 c-5 19 -14 123 -20 230 -19 340
-16 320 -57 320 -15 0 -36 12 -53 30 -19 21 -38 30 -58 30 -29 0 -31 -3 -36
-47 -4 -27 -11 -67 -16 -91 -6 -23 -10 -95 -11 -160 0 -75 -4 -110 -9 -97 -9
22 -10 18 -14 -80 -6 -138 -7 -151 -16 -120 -4 17 -13 116 -19 220 -7 105 -13
210 -15 235 -2 34 -3 28 -6 -25 -3 -59 -4 -50 -9 53 -7 135 -8 137 -74 148
-22 4 -51 17 -67 30 -15 13 -34 24 -41 24 -7 0 -26 4 -43 9 -17 5 -50 15 -74
21 -31 8 -48 20 -62 43 l-20 32 0 -442 0 -443 885 0 885 0 0 725 0 725 -885 0
-885 0 1 -267z"/>
<path d="M1232 650 c0 -14 2 -19 5 -12 2 6 2 18 0 25 -3 6 -5 1 -5 -13z"/>
</g>
</svg>
